<mxfile>
    <diagram id="gh9nE_mWKB3RlbtRyh80" name="Page-1">
        <mxGraphModel dx="806" dy="658" grid="1" gridSize="10" guides="1" tooltips="1" connect="1" arrows="1" fold="1" page="1" pageScale="1" pageWidth="827" pageHeight="1169" background="#FFFFFF" math="0" shadow="0">
            <root>
                <mxCell id="0"/>
                <mxCell id="1" parent="0"/>
                <mxCell id="19" value="&lt;br&gt;&lt;br&gt;&lt;br&gt;&lt;br&gt;&lt;i&gt;weitere Spiele&lt;/i&gt;" style="rounded=0;whiteSpace=wrap;html=1;dashed=1;fontColor=#333333;strokeColor=none;verticalAlign=middle;fillColor=#E3E3E3;" vertex="1" parent="1">
                    <mxGeometry x="270" y="580" width="290" height="90" as="geometry"/>
                </mxCell>
                <mxCell id="3" value="«interface»&lt;br&gt;&lt;b&gt;Game&lt;/b&gt;" style="html=1;" parent="1" vertex="1">
                    <mxGeometry x="360" y="440" width="110" height="50" as="geometry"/>
                </mxCell>
                <mxCell id="6" value="&lt;b&gt;RoundtheWorld&lt;/b&gt;" style="html=1;" parent="1" vertex="1">
                    <mxGeometry x="440" y="590" width="110" height="50" as="geometry"/>
                </mxCell>
                <mxCell id="7" value="&lt;b&gt;Survive61&lt;/b&gt;" style="html=1;" parent="1" vertex="1">
                    <mxGeometry x="280" y="590" width="110" height="50" as="geometry"/>
                </mxCell>
                <mxCell id="9" value="" style="endArrow=block;dashed=1;endFill=0;endSize=12;html=1;entryX=0.5;entryY=1;entryDx=0;entryDy=0;exitX=0.5;exitY=0;exitDx=0;exitDy=0;edgeStyle=orthogonalEdgeStyle;rounded=0;" parent="1" source="7" target="3" edge="1">
                    <mxGeometry width="160" relative="1" as="geometry">
                        <mxPoint x="429" y="550" as="sourcePoint"/>
                        <mxPoint x="589" y="550" as="targetPoint"/>
                    </mxGeometry>
                </mxCell>
                <mxCell id="10" value="" style="endArrow=block;dashed=1;endFill=0;endSize=12;html=1;exitX=0.5;exitY=0;exitDx=0;exitDy=0;edgeStyle=orthogonalEdgeStyle;entryX=0.5;entryY=1;entryDx=0;entryDy=0;elbow=vertical;rounded=0;" parent="1" source="6" target="3" edge="1">
                    <mxGeometry width="160" relative="1" as="geometry">
                        <mxPoint x="394" y="600" as="sourcePoint"/>
                        <mxPoint x="419" y="500" as="targetPoint"/>
                    </mxGeometry>
                </mxCell>
                <mxCell id="11" value="" style="endArrow=open;startArrow=circlePlus;endFill=0;startFill=0;endSize=8;html=1;entryX=0.5;entryY=1;entryDx=0;entryDy=0;" edge="1" parent="1" source="13" target="12">
                    <mxGeometry width="160" relative="1" as="geometry">
                        <mxPoint x="350" y="680" as="sourcePoint"/>
                        <mxPoint x="510" y="680" as="targetPoint"/>
                    </mxGeometry>
                </mxCell>
                <mxCell id="12" value="&lt;b&gt;Throw&lt;br&gt;&lt;/b&gt;" style="html=1;" vertex="1" parent="1">
                    <mxGeometry x="620" y="300" width="110" height="50" as="geometry"/>
                </mxCell>
                <mxCell id="13" value="&lt;b&gt;ThrowSet&lt;br&gt;&lt;/b&gt;" style="html=1;" vertex="1" parent="1">
                    <mxGeometry x="620" y="440" width="110" height="50" as="geometry"/>
                </mxCell>
                <mxCell id="15" value="1" style="endArrow=open;html=1;endSize=12;startArrow=diamondThin;startSize=14;startFill=1;edgeStyle=orthogonalEdgeStyle;align=left;verticalAlign=bottom;exitX=1;exitY=0.5;exitDx=0;exitDy=0;entryX=0;entryY=0.5;entryDx=0;entryDy=0;rounded=0;" edge="1" parent="1" source="22" target="13">
                    <mxGeometry x="-0.791" relative="1" as="geometry">
                        <mxPoint x="360" y="410" as="sourcePoint"/>
                        <mxPoint x="520" y="410" as="targetPoint"/>
                        <mxPoint as="offset"/>
                    </mxGeometry>
                </mxCell>
                <mxCell id="17" value="&lt;b&gt;Plan&lt;br&gt;&lt;/b&gt;" style="html=1;" vertex="1" parent="1">
                    <mxGeometry x="130" y="440" width="110" height="50" as="geometry"/>
                </mxCell>
                <mxCell id="18" value="1" style="endArrow=open;html=1;endSize=12;startArrow=diamondThin;startSize=14;startFill=0;edgeStyle=orthogonalEdgeStyle;align=left;verticalAlign=bottom;exitX=1;exitY=0.5;exitDx=0;exitDy=0;entryX=0;entryY=0.5;entryDx=0;entryDy=0;rounded=0;" edge="1" parent="1" source="17" target="3">
                    <mxGeometry x="-1" y="3" relative="1" as="geometry">
                        <mxPoint x="380" y="390" as="sourcePoint"/>
                        <mxPoint x="540" y="390" as="targetPoint"/>
                    </mxGeometry>
                </mxCell>
                <mxCell id="20" value="&lt;b&gt;Statistik&lt;br&gt;&lt;/b&gt;" style="html=1;" vertex="1" parent="1">
                    <mxGeometry x="130" y="190" width="110" height="50" as="geometry"/>
                </mxCell>
                <mxCell id="21" value="&lt;b&gt;User&lt;br&gt;&lt;/b&gt;" style="html=1;" vertex="1" parent="1">
                    <mxGeometry x="130" y="310" width="110" height="50" as="geometry"/>
                </mxCell>
                <mxCell id="22" value="&lt;b&gt;GameRecord&lt;br&gt;&lt;/b&gt;" style="html=1;" vertex="1" parent="1">
                    <mxGeometry x="360" y="310" width="110" height="50" as="geometry"/>
                </mxCell>
                <mxCell id="24" value="1" style="endArrow=open;html=1;endSize=12;startArrow=diamondThin;startSize=14;startFill=1;edgeStyle=orthogonalEdgeStyle;align=left;verticalAlign=bottom;exitX=0.5;exitY=0;exitDx=0;exitDy=0;entryX=0.5;entryY=1;entryDx=0;entryDy=0;" edge="1" parent="1" source="21" target="20">
                    <mxGeometry x="-0.4286" relative="1" as="geometry">
                        <mxPoint x="330" y="220" as="sourcePoint"/>
                        <mxPoint x="490" y="220" as="targetPoint"/>
                        <mxPoint as="offset"/>
                    </mxGeometry>
                </mxCell>
                <mxCell id="28" value="1" style="endArrow=open;html=1;endSize=12;startArrow=diamondThin;startSize=14;startFill=1;edgeStyle=orthogonalEdgeStyle;align=left;verticalAlign=bottom;exitX=0.5;exitY=1;exitDx=0;exitDy=0;entryX=0.5;entryY=0;entryDx=0;entryDy=0;" edge="1" parent="1" source="22" target="3">
                    <mxGeometry x="-0.2593" y="5" relative="1" as="geometry">
                        <mxPoint x="340" y="400" as="sourcePoint"/>
                        <mxPoint x="500" y="400" as="targetPoint"/>
                        <mxPoint as="offset"/>
                    </mxGeometry>
                </mxCell>
                <mxCell id="29" value="1" style="endArrow=open;html=1;endSize=12;startArrow=diamondThin;startSize=14;startFill=0;edgeStyle=orthogonalEdgeStyle;align=left;verticalAlign=bottom;exitX=1;exitY=0.5;exitDx=0;exitDy=0;entryX=0.5;entryY=0;entryDx=0;entryDy=0;rounded=0;" edge="1" parent="1" source="20" target="22">
                    <mxGeometry x="-1" y="3" relative="1" as="geometry">
                        <mxPoint x="350" y="170" as="sourcePoint"/>
                        <mxPoint x="510" y="170" as="targetPoint"/>
                    </mxGeometry>
                </mxCell>
                <mxCell id="30" value="" style="endArrow=open;endFill=1;endSize=12;html=1;exitX=0.5;exitY=1;exitDx=0;exitDy=0;entryX=0.5;entryY=0;entryDx=0;entryDy=0;" edge="1" parent="1" source="21" target="17">
                    <mxGeometry width="160" relative="1" as="geometry">
                        <mxPoint x="130" y="510" as="sourcePoint"/>
                        <mxPoint x="290" y="510" as="targetPoint"/>
                    </mxGeometry>
                </mxCell>
            </root>
        </mxGraphModel>
    </diagram>
</mxfile>